<svg xmlns="http://www.w3.org/2000/svg" width="375" viewBox="0 0 375 375" height="375" version="1.0"><defs><clipPath id="a"><path d="M 17 44.417969 L 375 44.417969 L 375 357.917969 L 17 357.917969 Z M 17 44.417969"/></clipPath></defs><g clip-path="url(#a)"><path fill="#C7EDE6" d="M 358.300781 230.386719 C 363.242188 221.003906 366.074219 210.335938 366.074219 198.992188 C 366.074219 170.164062 347.960938 145.621094 322.515625 135.953125 C 322.515625 135.921875 322.519531 135.890625 322.519531 135.855469 C 322.519531 85.355469 281.570312 44.417969 231.054688 44.417969 C 188.441406 44.417969 152.738281 73.597656 142.582031 113.027344 C 136.152344 110.914062 129.300781 109.730469 122.167969 109.730469 C 88.664062 109.730469 61.089844 134.957031 57.316406 167.433594 C 34.648438 172.226562 17.636719 192.324219 17.636719 216.410156 C 17.636719 244.0625 40.0625 266.480469 67.722656 266.480469 C 68.496094 266.480469 69.257812 266.429688 70.015625 266.386719 C 70 267.148438 69.902344 267.890625 69.902344 268.660156 C 69.902344 317.957031 109.875 357.917969 159.1875 357.917969 C 187.226562 357.917969 212.21875 344.980469 228.589844 324.765625 C 238.074219 334.453125 251.265625 340.503906 265.898438 340.503906 C 286.152344 340.503906 303.675781 328.964844 312.355469 312.121094 C 316.9375 313.582031 321.808594 314.378906 326.875 314.378906 C 353.335938 314.378906 374.785156 292.933594 374.785156 266.480469 C 374.785156 252.066406 368.382812 239.167969 358.300781 230.386719 Z M 358.300781 230.386719"/></g><path fill="#FDFCEF" d="M 326.332031 246.886719 C 326.332031 246.886719 342.183594 246.886719 353.007812 246.886719 C 363.832031 246.886719 372.605469 238.113281 372.605469 227.292969 C 372.605469 217.136719 364.847656 208.878906 354.945312 207.894531 C 355.042969 207.109375 355.183594 206.335938 355.183594 205.523438 C 355.183594 194.703125 346.410156 185.929688 335.585938 185.929688 C 329.324219 185.929688 323.8125 188.917969 320.222656 193.488281 C 319.613281 182.011719 310.199219 172.867188 298.5625 172.867188 C 286.539062 172.867188 276.785156 182.617188 276.785156 194.636719 C 276.785156 196.578125 277.121094 198.425781 277.601562 200.21875 C 274.804688 196.835938 270.628906 194.636719 265.898438 194.636719 C 258.140625 194.636719 251.8125 200.449219 250.851562 207.941406 C 250.0625 207.84375 249.289062 207.699219 248.476562 207.699219 C 237.652344 207.699219 228.875 216.472656 228.875 227.292969 C 228.875 238.113281 237.652344 246.886719 248.476562 246.886719 C 259.300781 246.886719 289.851562 246.886719 289.851562 246.886719 L 313.265625 246.886719 L 313.265625 249.066406 L 326.332031 249.066406 Z M 326.332031 246.886719"/><path fill="#472B29" d="M 298.5625 170.691406 C 285.355469 170.691406 274.609375 181.433594 274.609375 194.636719 C 274.609375 194.707031 274.609375 194.773438 274.609375 194.84375 C 271.988281 193.296875 268.992188 192.460938 265.898438 192.460938 C 257.921875 192.460938 251.042969 197.953125 249.09375 205.546875 C 248.890625 205.53125 248.6875 205.523438 248.476562 205.523438 C 236.46875 205.523438 226.699219 215.289062 226.699219 227.292969 C 226.699219 239.296875 236.46875 249.066406 248.476562 249.066406 L 313.265625 249.066406 C 314.464844 249.066406 315.441406 248.089844 315.441406 246.886719 C 315.441406 245.6875 314.464844 244.710938 313.265625 244.710938 L 248.476562 244.710938 C 238.867188 244.710938 231.054688 236.898438 231.054688 227.292969 C 231.054688 217.6875 238.867188 209.878906 248.476562 209.878906 C 248.984375 209.878906 249.476562 209.953125 249.96875 210.015625 L 250.585938 210.097656 C 250.675781 210.113281 250.761719 210.117188 250.855469 210.117188 C 251.925781 210.117188 252.867188 209.3125 253.011719 208.214844 C 253.84375 201.714844 259.382812 196.816406 265.898438 196.816406 C 269.753906 196.816406 273.402344 198.5625 275.921875 201.605469 C 276.347656 202.117188 276.96875 202.398438 277.601562 202.398438 C 277.941406 202.398438 278.28125 202.320312 278.59375 202.152344 C 279.503906 201.6875 279.960938 200.648438 279.699219 199.660156 C 279.199219 197.765625 278.964844 196.171875 278.964844 194.636719 C 278.964844 183.835938 287.757812 175.042969 298.5625 175.042969 C 308.933594 175.042969 317.496094 183.195312 318.050781 193.605469 C 318.097656 194.511719 318.703125 195.289062 319.570312 195.566406 C 319.789062 195.636719 320.011719 195.667969 320.234375 195.667969 C 320.886719 195.667969 321.523438 195.371094 321.941406 194.832031 C 325.296875 190.558594 330.269531 188.105469 335.585938 188.105469 C 345.195312 188.105469 353.007812 195.917969 353.007812 205.523438 C 353.007812 206.03125 352.933594 206.523438 352.867188 207.015625 L 352.785156 207.628906 C 352.714844 208.214844 352.882812 208.796875 353.246094 209.253906 C 353.613281 209.710938 354.148438 210.003906 354.726562 210.058594 C 363.683594 210.953125 370.429688 218.363281 370.429688 227.292969 C 370.429688 236.898438 362.617188 244.710938 353.007812 244.710938 L 326.332031 244.710938 C 325.128906 244.710938 324.152344 245.6875 324.152344 246.886719 C 324.152344 248.089844 325.128906 249.066406 326.332031 249.066406 L 353.007812 249.066406 C 365.015625 249.066406 374.785156 239.296875 374.785156 227.292969 C 374.785156 216.855469 367.429688 208.078125 357.351562 206.058594 C 357.359375 205.878906 357.363281 205.703125 357.363281 205.523438 C 357.363281 193.519531 347.59375 183.753906 335.585938 183.753906 C 330.464844 183.753906 325.597656 185.5625 321.722656 188.820312 C 319.117188 178.351562 309.691406 170.691406 298.5625 170.691406 Z M 298.5625 170.691406"/><path fill="#472B29" d="M 292.03125 201.167969 C 285.921875 201.167969 280.667969 205.519531 279.34375 211.363281 C 277.746094 210.394531 275.921875 209.878906 274.066406 209.878906 C 268.828125 209.878906 264.492188 213.78125 263.816406 218.882812 C 262.933594 218.679688 262.089844 218.585938 261.273438 218.585938 C 254.613281 218.585938 249.03125 223.8125 248.5625 230.480469 C 248.519531 231.082031 248.972656 231.605469 249.570312 231.648438 C 249.597656 231.648438 249.621094 231.648438 249.648438 231.648438 C 250.214844 231.648438 250.695312 231.207031 250.734375 230.636719 C 251.121094 225.105469 255.746094 220.761719 261.269531 220.761719 C 262.265625 220.761719 263.316406 220.945312 264.484375 221.316406 C 264.578125 221.347656 264.679688 221.359375 264.773438 221.359375 C 265.015625 221.359375 265.253906 221.273438 265.453125 221.125 C 265.734375 220.925781 265.898438 220.566406 265.898438 220.21875 C 265.898438 215.714844 269.5625 212.054688 274.066406 212.054688 C 276.011719 212.054688 277.917969 212.785156 279.425781 214.113281 C 279.632812 214.292969 279.886719 214.386719 280.144531 214.386719 C 280.285156 214.386719 280.417969 214.363281 280.550781 214.304688 C 280.933594 214.152344 281.195312 213.796875 281.226562 213.382812 C 281.679688 207.753906 286.421875 203.347656 292.03125 203.347656 C 292.9375 203.347656 293.882812 203.496094 295 203.8125 C 295.101562 203.84375 295.207031 203.855469 295.304688 203.855469 C 295.78125 203.855469 296.207031 203.539062 296.347656 203.0625 C 296.511719 202.484375 296.175781 201.882812 295.597656 201.71875 C 294.28125 201.34375 293.144531 201.167969 292.03125 201.167969 Z M 352.5 207.699219 C 346.722656 207.699219 341.574219 211.605469 339.980469 217.199219 C 339.816406 217.78125 340.152344 218.382812 340.730469 218.546875 C 340.835938 218.574219 340.933594 218.585938 341.03125 218.585938 C 341.503906 218.585938 341.941406 218.273438 342.074219 217.792969 C 343.402344 213.132812 347.691406 209.878906 352.5 209.878906 C 353.007812 209.878906 353.5 209.9375 353.988281 210.003906 C 354.039062 210.011719 354.089844 210.015625 354.140625 210.015625 C 354.667969 210.015625 355.136719 209.617188 355.210938 209.070312 C 355.292969 208.476562 354.875 207.925781 354.28125 207.847656 C 353.695312 207.769531 353.105469 207.699219 352.5 207.699219 Z M 352.5 207.699219"/><path fill="#FFF" d="M 45.535156 205.523438 L 2.394531 205.523438 C 1.191406 205.523438 0.214844 204.546875 0.214844 203.347656 C 0.214844 202.144531 1.191406 201.167969 2.394531 201.167969 L 45.535156 201.167969 C 46.734375 201.167969 47.710938 202.144531 47.710938 203.347656 C 47.710938 204.546875 46.738281 205.523438 45.535156 205.523438 Z M 59.011719 205.523438 L 54.65625 205.523438 C 53.457031 205.523438 52.480469 204.546875 52.480469 203.347656 C 52.480469 202.144531 53.457031 201.167969 54.65625 201.167969 L 59.011719 201.167969 C 60.214844 201.167969 61.191406 202.144531 61.191406 203.347656 C 61.191406 204.546875 60.21875 205.523438 59.011719 205.523438 Z M 80.75 214.230469 L 41.589844 214.230469 C 40.390625 214.230469 39.414062 213.257812 39.414062 212.054688 C 39.414062 210.851562 40.390625 209.878906 41.589844 209.878906 L 80.75 209.878906 C 81.953125 209.878906 82.929688 210.851562 82.929688 212.054688 C 82.929688 213.257812 81.953125 214.230469 80.75 214.230469 Z M 32.878906 214.230469 L 28.523438 214.230469 C 27.324219 214.230469 26.347656 213.257812 26.347656 212.054688 C 26.347656 210.851562 27.324219 209.878906 28.523438 209.878906 L 32.878906 209.878906 C 34.082031 209.878906 35.058594 210.851562 35.058594 212.054688 C 35.058594 213.257812 34.085938 214.230469 32.878906 214.230469 Z M 19.8125 214.230469 L 11.105469 214.230469 C 9.902344 214.230469 8.925781 213.257812 8.925781 212.054688 C 8.925781 210.851562 9.902344 209.878906 11.105469 209.878906 L 19.8125 209.878906 C 21.015625 209.878906 21.992188 210.851562 21.992188 212.054688 C 21.992188 213.257812 21.019531 214.230469 19.8125 214.230469 Z M 45.945312 222.941406 L 37.234375 222.941406 C 36.035156 222.941406 35.058594 221.964844 35.058594 220.761719 C 35.058594 219.5625 36.035156 218.585938 37.234375 218.585938 L 45.945312 218.585938 C 47.148438 218.585938 48.125 219.5625 48.125 220.761719 C 48.125 221.964844 47.148438 222.941406 45.945312 222.941406 Z M 59.011719 183.753906 C 58.242188 183.753906 55.429688 183.753906 54.65625 183.753906 C 53.457031 183.753906 52.480469 184.726562 52.480469 185.929688 C 52.480469 187.132812 53.457031 188.105469 54.65625 188.105469 C 55.429688 188.105469 58.242188 188.105469 59.011719 188.105469 C 60.214844 188.105469 61.191406 187.132812 61.191406 185.929688 C 61.191406 184.726562 60.214844 183.753906 59.011719 183.753906 Z M 59.011719 192.460938 C 58.242188 192.460938 38.007812 192.460938 37.234375 192.460938 C 36.035156 192.460938 35.058594 193.4375 35.058594 194.636719 C 35.058594 195.839844 36.035156 196.816406 37.234375 196.816406 C 38.007812 196.816406 58.242188 196.816406 59.011719 196.816406 C 60.214844 196.816406 61.191406 195.839844 61.191406 194.636719 C 61.191406 193.4375 60.214844 192.460938 59.011719 192.460938 Z M 80.789062 201.167969 C 80.019531 201.167969 68.496094 201.167969 67.722656 201.167969 C 66.523438 201.167969 65.546875 202.144531 65.546875 203.347656 C 65.546875 204.546875 66.523438 205.523438 67.722656 205.523438 C 68.496094 205.523438 80.019531 205.523438 80.789062 205.523438 C 81.992188 205.523438 82.96875 204.546875 82.96875 203.347656 C 82.96875 202.144531 81.992188 201.167969 80.789062 201.167969 Z M 294.207031 87.960938 L 250.652344 87.960938 C 249.453125 87.960938 248.476562 86.984375 248.476562 85.785156 C 248.476562 84.582031 249.453125 83.605469 250.652344 83.605469 L 294.207031 83.605469 C 295.410156 83.605469 296.386719 84.582031 296.386719 85.785156 C 296.386719 86.984375 295.410156 87.960938 294.207031 87.960938 Z M 311.628906 87.960938 L 302.917969 87.960938 C 301.71875 87.960938 300.742188 86.984375 300.742188 85.785156 C 300.742188 84.582031 301.71875 83.605469 302.917969 83.605469 L 311.628906 83.605469 C 312.832031 83.605469 313.808594 84.582031 313.808594 85.785156 C 313.808594 86.984375 312.832031 87.960938 311.628906 87.960938 Z M 333.40625 96.667969 L 289.851562 96.667969 C 288.652344 96.667969 287.675781 95.695312 287.675781 94.492188 C 287.675781 93.289062 288.652344 92.316406 289.851562 92.316406 L 333.40625 92.316406 C 334.609375 92.316406 335.585938 93.289062 335.585938 94.492188 C 335.585938 95.695312 334.613281 96.667969 333.40625 96.667969 Z M 281.140625 96.667969 L 276.785156 96.667969 C 275.585938 96.667969 274.609375 95.695312 274.609375 94.492188 C 274.609375 93.289062 275.585938 92.316406 276.785156 92.316406 L 281.140625 92.316406 C 282.34375 92.316406 283.320312 93.289062 283.320312 94.492188 C 283.320312 95.695312 282.34375 96.667969 281.140625 96.667969 Z M 267.53125 96.667969 L 259.363281 96.667969 C 258.164062 96.667969 257.1875 95.695312 257.1875 94.492188 C 257.1875 93.289062 258.164062 92.316406 259.363281 92.316406 L 267.53125 92.316406 C 268.734375 92.316406 269.710938 93.289062 269.710938 94.492188 C 269.710938 95.695312 268.734375 96.667969 267.53125 96.667969 Z M 307.273438 79.253906 L 285.496094 79.253906 C 284.296875 79.253906 283.320312 78.277344 283.320312 77.074219 C 283.320312 75.875 284.296875 74.898438 285.496094 74.898438 L 307.273438 74.898438 C 308.476562 74.898438 309.453125 75.875 309.453125 77.074219 C 309.453125 78.277344 308.480469 79.253906 307.273438 79.253906 Z M 294.207031 105.378906 L 285.496094 105.378906 C 284.296875 105.378906 283.320312 104.402344 283.320312 103.199219 C 283.320312 102 284.296875 101.023438 285.496094 101.023438 L 294.207031 101.023438 C 295.410156 101.023438 296.386719 102 296.386719 103.199219 C 296.386719 104.402344 295.410156 105.378906 294.207031 105.378906 Z M 294.207031 105.378906"/><path fill="#48BED8" d="M 139.589844 293.914062 C 122.058594 293.914062 107.792969 279.65625 107.792969 262.128906 L 107.792969 140.210938 C 107.792969 122.683594 122.054688 108.425781 139.589844 108.425781 L 261.542969 108.425781 C 279.074219 108.425781 293.335938 122.679688 293.335938 140.210938 L 293.335938 262.128906 C 293.335938 279.652344 279.078125 293.914062 261.542969 293.914062 Z M 139.589844 293.914062"/><path fill="#472B29" d="M 261.542969 111.472656 C 277.390625 111.472656 290.289062 124.367188 290.289062 140.210938 L 290.289062 262.128906 C 290.289062 277.972656 277.390625 290.863281 261.542969 290.863281 L 139.589844 290.863281 C 123.742188 290.863281 110.84375 277.972656 110.84375 262.128906 L 110.84375 140.210938 C 110.84375 124.367188 123.742188 111.472656 139.589844 111.472656 L 261.542969 111.472656 M 261.542969 105.378906 L 139.589844 105.378906 C 120.347656 105.378906 104.746094 120.972656 104.746094 140.210938 L 104.746094 262.128906 C 104.746094 281.363281 120.347656 296.960938 139.589844 296.960938 L 261.542969 296.960938 C 280.785156 296.960938 296.386719 281.363281 296.386719 262.128906 L 296.386719 140.210938 C 296.386719 120.972656 280.785156 105.378906 261.542969 105.378906 Z M 261.542969 105.378906"/><path fill="#472B29" d="M 276.550781 190.332031 C 275.351562 190.332031 274.375 189.355469 274.375 188.15625 L 274.375 172.019531 C 274.375 170.816406 275.351562 169.839844 276.550781 169.839844 C 277.753906 169.839844 278.730469 170.816406 278.730469 172.019531 L 278.730469 188.15625 C 278.730469 189.355469 277.753906 190.332031 276.550781 190.332031 Z M 276.550781 190.332031"/><path fill="#472B29" d="M 276.820312 162.242188 C 275.621094 162.242188 274.644531 161.265625 274.644531 160.066406 L 274.644531 151.734375 C 274.644531 150.535156 275.621094 149.558594 276.820312 149.558594 C 278.023438 149.558594 279 150.535156 279 151.734375 L 279 160.066406 C 279 161.265625 278.027344 162.242188 276.820312 162.242188 Z M 276.820312 162.242188"/><path fill="#472B29" d="M 258.28125 279.273438 L 143.125 279.273438 C 131.71875 279.273438 122.441406 269.996094 122.441406 258.597656 L 122.441406 143.472656 C 122.441406 132.074219 131.71875 122.792969 143.125 122.792969 L 247.484375 122.792969 C 248.6875 122.792969 249.660156 123.769531 249.660156 124.972656 C 249.660156 126.171875 248.6875 127.148438 247.484375 127.148438 L 143.125 127.148438 C 134.125 127.148438 126.796875 134.472656 126.796875 143.472656 L 126.796875 258.59375 C 126.796875 267.59375 134.125 274.914062 143.125 274.914062 L 258.28125 274.914062 C 267.285156 274.914062 274.609375 267.59375 274.609375 258.59375 L 274.609375 199.488281 C 274.609375 198.285156 275.585938 197.3125 276.785156 197.3125 C 277.988281 197.3125 278.964844 198.285156 278.964844 199.488281 L 278.964844 258.59375 C 278.964844 269.996094 269.6875 279.273438 258.28125 279.273438 Z M 258.28125 279.273438"/><path fill="#FDFCEF" d="M 137.410156 303.492188 C 137.410156 303.492188 144.238281 303.492188 152.65625 303.492188 C 161.074219 303.492188 167.898438 296.667969 167.898438 288.253906 C 167.898438 280.496094 162.085938 274.171875 154.59375 273.207031 C 154.714844 272.429688 154.832031 271.648438 154.832031 270.835938 C 154.832031 262.417969 148.007812 255.597656 139.589844 255.597656 C 135.09375 255.597656 131.097656 257.578125 128.308594 260.667969 C 126.636719 252.796875 119.65625 246.886719 111.277344 246.886719 C 101.65625 246.886719 93.855469 254.6875 93.855469 264.304688 C 93.855469 265.136719 93.988281 265.933594 94.101562 266.734375 C 92.238281 265.234375 89.902344 264.304688 87.324219 264.304688 C 81.976562 264.304688 77.546875 268.167969 76.632812 273.253906 C 75.851562 273.128906 75.074219 273.011719 74.257812 273.011719 C 65.839844 273.011719 59.011719 279.835938 59.011719 288.253906 C 59.011719 296.667969 65.839844 303.492188 74.257812 303.492188 C 82.675781 303.492188 106.921875 303.492188 106.921875 303.492188 L 106.921875 305.667969 L 137.410156 305.667969 Z M 137.410156 303.492188"/><path fill="#472B29" d="M 145.035156 283.898438 C 144.433594 283.898438 143.945312 283.410156 143.945312 282.808594 C 143.945312 277.484375 148.277344 273.152344 153.605469 273.152344 C 153.753906 273.191406 156.816406 273.148438 159.023438 273.746094 C 159.601562 273.902344 159.949219 274.496094 159.789062 275.078125 C 159.632812 275.660156 159.035156 276.003906 158.457031 275.84375 C 156.523438 275.320312 153.667969 275.320312 153.609375 275.328125 C 149.480469 275.328125 146.121094 278.6875 146.121094 282.808594 C 146.121094 283.410156 145.636719 283.898438 145.035156 283.898438 Z M 115.632812 301.316406 C 115.347656 301.316406 115.066406 301.371094 114.800781 301.480469 C 114.535156 301.589844 114.300781 301.75 114.09375 301.953125 C 113.890625 302.15625 113.734375 302.390625 113.621094 302.660156 C 113.511719 302.925781 113.457031 303.203125 113.457031 303.492188 C 113.457031 303.78125 113.511719 304.058594 113.621094 304.324219 C 113.734375 304.59375 113.890625 304.828125 114.09375 305.03125 C 114.300781 305.234375 114.535156 305.394531 114.800781 305.503906 C 115.066406 305.613281 115.347656 305.667969 115.632812 305.667969 C 115.921875 305.667969 116.203125 305.613281 116.46875 305.503906 C 116.734375 305.394531 116.96875 305.234375 117.175781 305.03125 C 117.378906 304.828125 117.535156 304.59375 117.648438 304.324219 C 117.757812 304.058594 117.8125 303.78125 117.8125 303.492188 C 117.8125 303.203125 117.757812 302.925781 117.648438 302.660156 C 117.535156 302.390625 117.378906 302.15625 117.175781 301.953125 C 116.96875 301.75 116.734375 301.589844 116.46875 301.480469 C 116.203125 301.371094 115.921875 301.316406 115.632812 301.316406 Z M 115.632812 301.316406"/><path fill="#472B29" d="M 152.65625 305.667969 L 137.410156 305.667969 C 136.210938 305.667969 135.234375 304.695312 135.234375 303.492188 C 135.234375 302.289062 136.210938 301.316406 137.410156 301.316406 L 152.65625 301.316406 C 159.859375 301.316406 165.722656 295.453125 165.722656 288.253906 C 165.722656 281.738281 160.824219 276.199219 154.320312 275.367188 C 153.738281 275.289062 153.210938 274.984375 152.855469 274.515625 C 152.503906 274.042969 152.355469 273.453125 152.445312 272.875 C 152.546875 272.203125 152.65625 271.53125 152.65625 270.835938 C 152.65625 263.632812 146.792969 257.773438 139.589844 257.773438 C 135.886719 257.773438 132.457031 259.320312 129.925781 262.128906 C 129.378906 262.734375 128.527344 262.988281 127.746094 262.773438 C 126.953125 262.558594 126.347656 261.921875 126.179688 261.121094 C 124.695312 254.136719 118.425781 249.066406 111.277344 249.066406 C 102.875 249.066406 96.035156 255.902344 96.035156 264.304688 C 96.035156 264.925781 96.125 265.523438 96.214844 266.125 C 96.339844 267.007812 95.9375 268.03125 95.160156 268.476562 C 94.378906 268.921875 93.433594 268.988281 92.738281 268.433594 C 91.148438 267.15625 89.28125 266.480469 87.324219 266.480469 C 83.117188 266.480469 79.519531 269.492188 78.773438 273.640625 C 78.566406 274.800781 77.484375 275.582031 76.296875 275.402344 C 75.625 275.296875 74.953125 275.191406 74.257812 275.191406 C 67.054688 275.191406 61.191406 281.050781 61.191406 288.253906 C 61.191406 295.453125 67.054688 301.316406 74.257812 301.316406 L 106.921875 301.316406 C 108.125 301.316406 109.101562 302.289062 109.101562 303.492188 C 109.101562 304.695312 108.125 305.667969 106.921875 305.667969 L 74.257812 305.667969 C 64.648438 305.667969 56.835938 297.859375 56.835938 288.253906 C 56.835938 278.648438 64.648438 270.835938 74.257812 270.835938 C 74.515625 270.835938 74.761719 270.84375 75.015625 270.863281 C 76.820312 265.699219 81.710938 262.128906 87.324219 262.128906 C 88.84375 262.128906 90.324219 262.394531 91.726562 262.910156 C 92.445312 252.753906 100.9375 244.710938 111.277344 244.710938 C 119.253906 244.710938 126.375 249.617188 129.367188 256.789062 C 132.328125 254.621094 135.910156 253.417969 139.589844 253.417969 C 149.199219 253.417969 157.011719 261.230469 157.011719 270.835938 C 157.011719 271.042969 157.007812 271.25 156.996094 271.453125 C 164.585938 273.40625 170.078125 280.28125 170.078125 288.253906 C 170.078125 297.859375 162.265625 305.667969 152.65625 305.667969 Z M 152.65625 305.667969"/><path fill="#472B29" d="M 128.699219 301.316406 C 128.007812 301.316406 125.039062 301.316406 124.34375 301.316406 C 123.144531 301.316406 122.167969 302.289062 122.167969 303.492188 C 122.167969 304.695312 123.144531 305.667969 124.34375 305.667969 C 125.039062 305.667969 128.007812 305.667969 128.699219 305.667969 C 129.902344 305.667969 130.878906 304.695312 130.878906 303.492188 C 130.878906 302.289062 129.902344 301.316406 128.699219 301.316406 Z M 128.699219 301.316406"/><path fill="#DA914B" d="M 252.613281 259.726562 C 250.867188 259.726562 249.230469 259.054688 247.992188 257.820312 L 204.878906 214.71875 C 202.332031 212.171875 202.332031 208.027344 204.878906 205.480469 C 206.109375 204.246094 207.753906 203.574219 209.5 203.574219 C 211.246094 203.574219 212.882812 204.246094 214.121094 205.480469 L 257.234375 248.582031 C 259.785156 251.128906 259.785156 255.273438 257.234375 257.820312 C 256 259.054688 254.359375 259.726562 252.613281 259.726562 Z M 252.613281 259.726562"/><path fill="#472B29" d="M 209.496094 205.742188 C 210.65625 205.742188 211.75 206.195312 212.574219 207.015625 L 255.695312 250.117188 C 256.515625 250.941406 256.96875 252.035156 256.96875 253.195312 C 256.96875 254.359375 256.515625 255.453125 255.695312 256.277344 C 254.871094 257.097656 253.777344 257.550781 252.613281 257.550781 C 251.453125 257.550781 250.359375 257.097656 249.535156 256.277344 L 206.414062 213.171875 C 205.59375 212.351562 205.140625 211.257812 205.140625 210.09375 C 205.140625 208.933594 205.59375 207.839844 206.414062 207.015625 C 207.238281 206.195312 208.332031 205.742188 209.496094 205.742188 M 209.496094 201.386719 C 207.265625 201.386719 205.035156 202.234375 203.335938 203.9375 C 199.933594 207.339844 199.933594 212.851562 203.335938 216.25 L 246.453125 259.355469 C 248.152344 261.054688 250.378906 261.90625 252.609375 261.90625 C 254.839844 261.90625 257.070312 261.054688 258.769531 259.355469 C 262.171875 255.953125 262.171875 250.441406 258.769531 247.039062 L 215.652344 203.9375 C 213.957031 202.242188 211.726562 201.386719 209.496094 201.386719 Z M 209.496094 201.386719"/><path fill="#FDE751" d="M 183.144531 138.035156 C 181.648438 138.035156 180.152344 138.105469 178.660156 138.253906 C 177.171875 138.402344 175.691406 138.621094 174.222656 138.914062 C 172.753906 139.203125 171.300781 139.566406 169.867188 140.003906 C 168.4375 140.4375 167.027344 140.941406 165.644531 141.515625 C 164.257812 142.085938 162.90625 142.726562 161.585938 143.433594 C 160.265625 144.136719 158.980469 144.90625 157.738281 145.738281 C 156.492188 146.570312 155.289062 147.460938 154.132812 148.410156 C 152.972656 149.359375 151.867188 150.367188 150.808594 151.425781 C 149.746094 152.484375 148.742188 153.589844 147.792969 154.75 C 146.84375 155.90625 145.953125 157.109375 145.121094 158.351562 C 144.289062 159.597656 143.519531 160.878906 142.8125 162.199219 C 142.105469 163.519531 141.464844 164.875 140.894531 166.257812 C 140.320312 167.640625 139.816406 169.046875 139.382812 170.480469 C 138.945312 171.914062 138.582031 173.363281 138.289062 174.832031 C 138 176.300781 137.777344 177.78125 137.632812 179.269531 C 137.484375 180.761719 137.410156 182.253906 137.410156 183.753906 C 137.410156 185.25 137.484375 186.742188 137.632812 188.234375 C 137.777344 189.722656 138 191.203125 138.289062 192.671875 C 138.582031 194.140625 138.945312 195.589844 139.382812 197.023438 C 139.816406 198.457031 140.320312 199.863281 140.894531 201.25 C 141.464844 202.632812 142.105469 203.984375 142.8125 205.304688 C 143.519531 206.625 144.289062 207.90625 145.121094 209.152344 C 145.953125 210.398438 146.84375 211.597656 147.792969 212.757812 C 148.742188 213.914062 149.746094 215.023438 150.808594 216.082031 C 151.867188 217.140625 152.972656 218.144531 154.132812 219.09375 C 155.289062 220.042969 156.492188 220.933594 157.738281 221.765625 C 158.980469 222.597656 160.265625 223.367188 161.585938 224.074219 C 162.90625 224.777344 164.257812 225.417969 165.644531 225.992188 C 167.027344 226.5625 168.4375 227.066406 169.867188 227.503906 C 171.300781 227.9375 172.753906 228.300781 174.222656 228.59375 C 175.691406 228.886719 177.171875 229.105469 178.660156 229.25 C 180.152344 229.398438 181.648438 229.472656 183.144531 229.472656 C 184.640625 229.472656 186.136719 229.398438 187.628906 229.25 C 189.117188 229.105469 190.597656 228.886719 192.066406 228.59375 C 193.535156 228.300781 194.988281 227.9375 196.417969 227.503906 C 197.851562 227.066406 199.261719 226.5625 200.644531 225.992188 C 202.03125 225.417969 203.382812 224.777344 204.703125 224.074219 C 206.023438 223.367188 207.308594 222.597656 208.550781 221.765625 C 209.796875 220.933594 211 220.042969 212.15625 219.09375 C 213.316406 218.144531 214.421875 217.140625 215.480469 216.082031 C 216.542969 215.023438 217.546875 213.914062 218.496094 212.757812 C 219.445312 211.597656 220.335938 210.398438 221.167969 209.152344 C 222 207.90625 222.769531 206.625 223.476562 205.304688 C 224.183594 203.984375 224.824219 202.632812 225.394531 201.25 C 225.96875 199.863281 226.472656 198.457031 226.90625 197.023438 C 227.34375 195.589844 227.707031 194.140625 228 192.671875 C 228.289062 191.203125 228.511719 189.722656 228.65625 188.234375 C 228.804688 186.742188 228.875 185.25 228.875 183.753906 C 228.875 182.253906 228.804688 180.761719 228.65625 179.269531 C 228.511719 177.78125 228.289062 176.300781 228 174.832031 C 227.707031 173.363281 227.34375 171.914062 226.90625 170.480469 C 226.472656 169.046875 225.96875 167.640625 225.394531 166.257812 C 224.824219 164.875 224.183594 163.519531 223.476562 162.199219 C 222.769531 160.878906 222 159.597656 221.167969 158.351562 C 220.335938 157.109375 219.445312 155.90625 218.496094 154.75 C 217.546875 153.589844 216.542969 152.484375 215.480469 151.425781 C 214.421875 150.367188 213.316406 149.359375 212.15625 148.410156 C 211 147.460938 209.796875 146.570312 208.550781 145.738281 C 207.308594 144.90625 206.023438 144.136719 204.703125 143.433594 C 203.382812 142.726562 202.03125 142.085938 200.644531 141.515625 C 199.261719 140.941406 197.851562 140.4375 196.417969 140.003906 C 194.988281 139.566406 193.535156 139.203125 192.066406 138.914062 C 190.597656 138.621094 189.117188 138.402344 187.628906 138.253906 C 186.136719 138.105469 184.640625 138.035156 183.144531 138.035156 Z M 183.144531 138.035156"/><path fill="#472B29" d="M 183.144531 140.210938 C 207.160156 140.210938 226.699219 159.742188 226.699219 183.753906 C 226.699219 207.761719 207.160156 227.292969 183.144531 227.292969 C 159.128906 227.292969 139.589844 207.761719 139.589844 183.753906 C 139.589844 159.742188 159.128906 140.210938 183.144531 140.210938 M 183.144531 135.855469 C 156.683594 135.855469 135.234375 157.300781 135.234375 183.753906 C 135.234375 210.203125 156.683594 231.648438 183.144531 231.648438 C 209.605469 231.648438 231.054688 210.203125 231.054688 183.753906 C 231.054688 157.300781 209.605469 135.855469 183.144531 135.855469 Z M 183.144531 135.855469"/><path fill="#88CDD7" d="M 183.144531 151.097656 C 182.074219 151.097656 181.007812 151.148438 179.941406 151.253906 C 178.878906 151.359375 177.820312 151.515625 176.773438 151.722656 C 175.722656 151.933594 174.6875 152.191406 173.660156 152.503906 C 172.636719 152.8125 171.632812 153.171875 170.644531 153.582031 C 169.65625 153.992188 168.6875 154.449219 167.746094 154.953125 C 166.800781 155.457031 165.886719 156.003906 164.996094 156.601562 C 164.105469 157.195312 163.25 157.832031 162.421875 158.507812 C 161.59375 159.1875 160.800781 159.90625 160.046875 160.660156 C 159.289062 161.417969 158.570312 162.207031 157.894531 163.035156 C 157.214844 163.863281 156.578125 164.71875 155.984375 165.609375 C 155.390625 166.5 154.839844 167.414062 154.335938 168.359375 C 153.832031 169.300781 153.375 170.265625 152.964844 171.253906 C 152.554688 172.242188 152.195312 173.25 151.886719 174.273438 C 151.574219 175.296875 151.316406 176.332031 151.105469 177.382812 C 150.898438 178.429688 150.742188 179.488281 150.636719 180.550781 C 150.53125 181.617188 150.476562 182.683594 150.476562 183.753906 C 150.476562 184.820312 150.53125 185.890625 150.636719 186.953125 C 150.742188 188.019531 150.898438 189.074219 151.105469 190.125 C 151.316406 191.171875 151.574219 192.207031 151.886719 193.230469 C 152.195312 194.253906 152.554688 195.261719 152.964844 196.25 C 153.375 197.238281 153.832031 198.203125 154.335938 199.148438 C 154.839844 200.089844 155.390625 201.007812 155.984375 201.894531 C 156.578125 202.785156 157.214844 203.644531 157.894531 204.46875 C 158.570312 205.296875 159.289062 206.085938 160.046875 206.84375 C 160.800781 207.601562 161.59375 208.316406 162.421875 208.996094 C 163.25 209.675781 164.105469 210.3125 164.996094 210.90625 C 165.886719 211.5 166.800781 212.046875 167.746094 212.550781 C 168.6875 213.058594 169.65625 213.511719 170.644531 213.921875 C 171.632812 214.332031 172.636719 214.691406 173.660156 215.003906 C 174.6875 215.3125 175.722656 215.574219 176.773438 215.78125 C 177.820312 215.988281 178.878906 216.148438 179.941406 216.25 C 181.007812 216.355469 182.074219 216.410156 183.144531 216.410156 C 184.214844 216.410156 185.28125 216.355469 186.347656 216.25 C 187.410156 216.148438 188.46875 215.988281 189.515625 215.78125 C 190.566406 215.574219 191.601562 215.3125 192.625 215.003906 C 193.652344 214.691406 194.65625 214.332031 195.644531 213.921875 C 196.632812 213.511719 197.601562 213.058594 198.542969 212.550781 C 199.488281 212.046875 200.402344 211.5 201.292969 210.90625 C 202.183594 210.3125 203.039062 209.675781 203.867188 208.996094 C 204.695312 208.316406 205.488281 207.601562 206.242188 206.84375 C 207 206.085938 207.71875 205.296875 208.394531 204.46875 C 209.074219 203.644531 209.710938 202.785156 210.304688 201.894531 C 210.898438 201.007812 211.449219 200.089844 211.953125 199.148438 C 212.457031 198.203125 212.914062 197.238281 213.324219 196.25 C 213.734375 195.261719 214.09375 194.253906 214.402344 193.230469 C 214.714844 192.207031 214.972656 191.171875 215.183594 190.125 C 215.390625 189.074219 215.546875 188.019531 215.652344 186.953125 C 215.757812 185.890625 215.808594 184.820312 215.808594 183.753906 C 215.808594 182.683594 215.757812 181.617188 215.652344 180.550781 C 215.546875 179.488281 215.390625 178.429688 215.183594 177.382812 C 214.972656 176.332031 214.714844 175.296875 214.402344 174.273438 C 214.09375 173.25 213.734375 172.242188 213.324219 171.253906 C 212.914062 170.265625 212.457031 169.300781 211.953125 168.359375 C 211.449219 167.414062 210.898438 166.5 210.304688 165.609375 C 209.710938 164.71875 209.074219 163.863281 208.394531 163.035156 C 207.71875 162.207031 207 161.417969 206.242188 160.660156 C 205.488281 159.90625 204.695312 159.1875 203.867188 158.507812 C 203.039062 157.832031 202.183594 157.195312 201.292969 156.601562 C 200.402344 156.003906 199.488281 155.457031 198.542969 154.953125 C 197.601562 154.449219 196.632812 153.992188 195.644531 153.582031 C 194.65625 153.171875 193.652344 152.8125 192.625 152.503906 C 191.601562 152.191406 190.566406 151.933594 189.515625 151.722656 C 188.46875 151.515625 187.410156 151.359375 186.347656 151.253906 C 185.28125 151.148438 184.214844 151.097656 183.144531 151.097656 Z M 183.144531 151.097656"/><path fill="#472B29" d="M 183.144531 153.273438 C 199.957031 153.273438 213.632812 166.945312 213.632812 183.753906 C 213.632812 200.558594 199.957031 214.230469 183.144531 214.230469 C 166.332031 214.230469 152.65625 200.558594 152.65625 183.753906 C 152.65625 166.945312 166.332031 153.273438 183.144531 153.273438 M 183.144531 148.917969 C 163.902344 148.917969 148.300781 164.515625 148.300781 183.753906 C 148.300781 202.988281 163.902344 218.585938 183.144531 218.585938 C 202.386719 218.585938 217.988281 202.988281 217.988281 183.753906 C 217.988281 164.515625 202.386719 148.917969 183.144531 148.917969 Z M 183.144531 148.917969"/><path fill="#472B29" d="M 159.1875 187.019531 C 158.589844 187.019531 158.101562 186.53125 158.101562 185.929688 C 158.101562 178.386719 161.277344 171.121094 166.808594 165.984375 C 167.246094 165.578125 167.929688 165.59375 168.34375 166.042969 C 168.753906 166.484375 168.726562 167.171875 168.289062 167.585938 C 163.199219 172.304688 160.28125 178.992188 160.28125 185.933594 C 160.277344 186.53125 159.789062 187.019531 159.1875 187.019531 Z M 159.1875 187.019531"/><path fill="#472B29" d="M 173.414062 163.753906 C 173.019531 163.753906 172.640625 163.535156 172.441406 163.160156 C 172.167969 162.625 172.382812 161.972656 172.917969 161.695312 C 176.78125 159.71875 180.953125 158.710938 185.320312 158.710938 C 185.921875 158.710938 186.410156 159.199219 186.410156 159.800781 C 186.410156 160.402344 185.921875 160.890625 185.320312 160.890625 C 181.300781 160.890625 177.464844 161.8125 173.910156 163.632812 C 173.753906 163.714844 173.585938 163.753906 173.414062 163.753906 Z M 173.414062 163.753906"/><path fill="#472B29" d="M 198.746094 201.808594 C 198.453125 201.808594 198.164062 201.695312 197.949219 201.460938 C 197.539062 201.019531 197.566406 200.332031 198.003906 199.917969 C 203.09375 195.199219 206.011719 188.511719 206.011719 181.570312 C 206.011719 180.96875 206.5 180.484375 207.097656 180.484375 C 207.699219 180.484375 208.1875 180.96875 208.1875 181.570312 C 208.1875 189.113281 205.011719 196.378906 199.480469 201.515625 C 199.277344 201.714844 199.011719 201.808594 198.746094 201.808594 Z M 198.746094 201.808594"/><path fill="#472B29" d="M 180.964844 208.789062 C 180.367188 208.789062 179.878906 208.300781 179.878906 207.699219 C 179.878906 207.097656 180.367188 206.613281 180.964844 206.613281 C 184.988281 206.613281 188.824219 205.6875 192.378906 203.867188 C 192.910156 203.609375 193.566406 203.808594 193.839844 204.339844 C 194.117188 204.875 193.902344 205.527344 193.367188 205.804688 C 189.507812 207.789062 185.332031 208.789062 180.964844 208.789062 Z M 180.964844 208.789062"/></svg>